<svg width="70" height="51" viewBox="0 0 70 51" fill="none" xmlns="http://www.w3.org/2000/svg">
<rect y="0.498535" width="70" height="50" rx="25" fill="black"/>
<path fill-rule="evenodd" clip-rule="evenodd" d="M30.1254 15.3324C30.7531 15.3324 31.3104 15.5849 31.5089 15.9592L38.8754 29.8503L41.8669 24.2092C42.0654 23.8349 42.6227 23.5824 43.2504 23.5824H49.0837C49.8892 23.5824 50.5421 23.9928 50.5421 24.4991C50.5421 25.0053 49.8892 25.4157 49.0837 25.4157H44.3015L40.2589 33.0389C40.0604 33.4133 39.5031 33.6657 38.8754 33.6657C38.2477 33.6657 37.6904 33.4133 37.4919 33.0389L30.1254 19.1478L27.1339 24.7889C26.9354 25.1633 26.3781 25.4157 25.7504 25.4157H19.9171C19.1117 25.4157 18.4587 25.0053 18.4587 24.4991C18.4587 23.9928 19.1117 23.5824 19.9171 23.5824H24.6993L28.7419 15.9592C28.9404 15.5849 29.4977 15.3324 30.1254 15.3324Z" fill="white"/>
</svg>
