<svg width="8" height="19" viewBox="0 0 8 19" fill="none" xmlns="http://www.w3.org/2000/svg">
<path d="M4.60355 0.144494C4.40829 -0.0507687 4.09171 -0.0507687 3.89645 0.144493L0.714466 3.32647C0.519204 3.52174 0.519204 3.83832 0.714466 4.03358C0.909728 4.22884 1.22631 4.22884 1.42157 4.03358L4.25 1.20515L7.07843 4.03358C7.27369 4.22884 7.59027 4.22884 7.78553 4.03358C7.9808 3.83832 7.9808 3.52174 7.78553 3.32647L4.60355 0.144494ZM3.89645 18.8516C4.09171 19.0469 4.40829 19.0469 4.60355 18.8516L7.78553 15.6696C7.9808 15.4744 7.9808 15.1578 7.78553 14.9625C7.59027 14.7673 7.27369 14.7673 7.07843 14.9625L4.25 17.7909L1.42157 14.9625C1.22631 14.7673 0.909728 14.7673 0.714465 14.9625C0.519203 15.1578 0.519203 15.4744 0.714465 15.6696L3.89645 18.8516ZM3.75 0.498047L3.75 18.498L4.75 18.498L4.75 0.498047L3.75 0.498047Z" fill="#BBBBBB"/>
</svg>
