<svg width="31" height="31" viewBox="0 0 31 31" fill="none" xmlns="http://www.w3.org/2000/svg">
<path d="M30.4503 12.3635H29.2118V12.2997H15.3746V18.4496H24.0636C22.796 22.0296 19.3897 24.5994 15.3746 24.5994C10.2803 24.5994 6.14986 20.469 6.14986 15.3746C6.14986 10.2803 10.2803 6.14986 15.3746 6.14986C17.7262 6.14986 19.8656 7.03698 21.4945 8.48604L25.8432 4.13732C23.0973 1.57821 19.4243 0 15.3746 0C6.884 0 0 6.884 0 15.3746C0 23.8653 6.884 30.7493 15.3746 30.7493C23.8653 30.7493 30.7493 23.8653 30.7493 15.3746C30.7493 14.3438 30.6432 13.3375 30.4503 12.3635Z" fill="#FFC107"/>
<path d="M1.77222 8.21852L6.82356 11.923C8.19036 8.53908 11.5005 6.14986 15.3742 6.14986C17.7257 6.14986 19.8651 7.03698 21.494 8.48604L25.8428 4.13732C23.0969 1.57821 19.4238 0 15.3742 0C9.46877 0 4.34747 3.33399 1.77222 8.21852Z" fill="#FF3D00"/>
<path d="M15.3758 30.7484C19.347 30.7484 22.9555 29.2287 25.6837 26.7572L20.9252 22.7306C19.3816 23.8998 17.4629 24.5986 15.3758 24.5986C11.3768 24.5986 7.98132 22.0487 6.70215 18.4902L1.68848 22.3531C4.23298 27.3322 9.4004 30.7484 15.3758 30.7484Z" fill="#4CAF50"/>
<path d="M30.4513 12.3626H29.2129V12.2988H15.3757V18.4487H24.0647C23.4559 20.1683 22.3497 21.6512 20.9229 22.7313C20.9237 22.7305 20.9244 22.7305 20.9252 22.7298L25.6837 26.7564C25.347 27.0623 30.7504 23.0611 30.7504 15.3738C30.7504 14.3429 30.6443 13.3366 30.4513 12.3626Z" fill="#1976D2"/>
</svg>
